<svg width="802" height="802" viewBox="0 0 802 802" fill="none" xmlns="http://www.w3.org/2000/svg">
<rect width="801.515" height="801.515" rx="123" fill="white"/>
<g filter="url(#filter0_i_7_42)">
<path d="M624.5 624C618.616 630.257 179.127 633.992 176.38 624C173.634 614.008 372.114 547.326 380.563 535.736C389.012 524.146 174.87 195.463 178.605 186.748C182.34 178.034 383.808 183.469 383.808 183.469C383.808 183.469 619.902 175.042 622.733 179.65C625.564 184.258 440.57 279.38 440.313 290.957C440.057 302.534 630.384 617.743 624.5 624Z" stroke="url(#paint0_linear_7_42)" stroke-width="9"/>
<path d="M590.87 606.417C586.446 611.054 255.91 613.721 253.842 606.312C251.774 598.904 402.363 552.494 408.715 543.904C415.067 535.313 209.053 209.062 211.86 202.602C214.667 196.143 366.191 200.219 366.191 200.219C366.191 200.219 543.754 194.026 545.884 197.443C548.014 200.86 408.903 271.338 408.713 279.921C408.523 288.503 595.294 601.78 590.87 606.417Z" stroke="url(#paint1_linear_7_42)" stroke-width="9"/>
<path d="M562.434 591.494C559.455 594.616 336.892 596.412 335.5 591.424C334.108 586.435 432.254 557.848 436.531 552.063C440.808 546.279 245.801 226.474 247.691 222.124C249.581 217.775 351.608 220.519 351.608 220.519C351.608 220.519 471.168 216.35 472.603 218.65C474.037 220.951 380.368 268.407 380.24 274.186C380.112 279.965 565.413 588.372 562.434 591.494Z" stroke="url(#paint2_linear_7_42)" stroke-width="9"/>
</g>
<defs>
<filter id="filter0_i_7_42" x="171.849" y="173.772" width="457.285" height="464.9" filterUnits="userSpaceOnUse" color-interpolation-filters="sRGB">
<feFlood flood-opacity="0" result="BackgroundImageFix"/>
<feBlend mode="normal" in="SourceGraphic" in2="BackgroundImageFix" result="shape"/>
<feColorMatrix in="SourceAlpha" type="matrix" values="0 0 0 0 0 0 0 0 0 0 0 0 0 0 0 0 0 0 127 0" result="hardAlpha"/>
<feOffset dy="4"/>
<feGaussianBlur stdDeviation="2"/>
<feComposite in2="hardAlpha" operator="arithmetic" k2="-1" k3="1"/>
<feColorMatrix type="matrix" values="0 0 0 0 0 0 0 0 0 0 0 0 0 0 0 0 0 0 0.25 0"/>
<feBlend mode="normal" in2="shape" result="effect1_innerShadow_7_42"/>
</filter>
<linearGradient id="paint0_linear_7_42" x1="406.622" y1="174.019" x2="396.659" y2="632.356" gradientUnits="userSpaceOnUse">
<stop stop-color="#747474"/>
<stop offset="1" stop-color="#929292"/>
</linearGradient>
<linearGradient id="paint1_linear_7_42" x1="405.971" y1="193.71" x2="396.876" y2="612.067" gradientUnits="userSpaceOnUse">
<stop stop-color="#B4B3B3"/>
<stop offset="1" stop-color="#828282"/>
</linearGradient>
<linearGradient id="paint2_linear_7_42" x1="409.204" y1="216.807" x2="400.99" y2="594.628" gradientUnits="userSpaceOnUse">
<stop stop-color="#8F8F8F"/>
<stop offset="1" stop-color="#8E8E8E"/>
</linearGradient>
</defs>
</svg>
